<?xml version="1.0" encoding="UTF-8"?>
<!DOCTYPE svg PUBLIC "-//W3C//DTD SVG 1.0//EN" "http://www.w3.org/TR/2001/REC-SVG-20010904/DTD/svg10.dtd">
<!-- Creator: CorelDRAW 2020 (64-Bit) -->
<svg xmlns="http://www.w3.org/2000/svg" xml:space="preserve" width="1280px" height="128px" version="1.0" style="shape-rendering:geometricPrecision; text-rendering:geometricPrecision; image-rendering:optimizeQuality; fill-rule:evenodd; clip-rule:evenodd"
viewBox="0 0 12800000 1280000"
 xmlns:xlink="http://www.w3.org/1999/xlink"
 xmlns:xodm="http://www.corel.com/coreldraw/odm/2003">
 <defs>
  <style type="text/css">
   <![CDATA[
    .fil1 {fill:black}
    .fil0 {fill:black;fill-rule:nonzero}
   ]]>
  </style>
 </defs>
 <g id="Layer_x0020_1">
  <metadata id="CorelCorpID_0Corel-Layer"/>
  <g id="_2410449253616">
   <path class="fil0" d="M1414970 1161570l122820 -822740 223780 0 -15140 95910 -82440 0 -16840 134590 79080 0 -13460 95900 -80760 0 -74030 496340 -143010 0zm-1226530 -205270l134590 0 -37010 -321350 112730 -286020 -121140 0 -84130 228820 60580 -459330 -127880 0 -126180 839570 129550 0 43750 -260780 15140 259090zm173290 0l114410 0 43750 -274240 18500 269200 134600 1680 89180 -607380 -114420 0 -38690 235550 -16830 -235550 -136280 0 -94220 610740zm805910 -615140l-74020 507460c0,0 -21970,120030 144690,116100 143000,-3370 156470,-112720 156470,-112720l75720 -513170 -121150 0 -74030 498020c0,0 3370,37000 -30280,35330 -33650,-1680 -25240,-26920 -25240,-26920l75710 -503060 -127870 -1040zm-265830 1040l-191800 612420 134600 0 30280 -122820 45430 0 -5050 122820 121140 0 26920 -612420 -161520 0zm37020 395380l0 0 -48800 0 74030 -275930 -25230 275930z"/>
   <g id="Логотип_x0020_ВТБ.cdr">
    <path class="fil1" d="M3024630 475400l-526490 0 -37980 104350 526490 0 37980 -104350zm56890 -156550l-526470 0 -37980 104370 526460 0 37990 -104370zm19000 -52170l-526470 0 38000 -104370 526450 0 -37980 104370z"/>
    <path class="fil1" d="M3569470 611360l0 2160c23840,8670 46570,23840 58500,33590 36830,30330 53080,70410 53080,122420 0,85570 -45510,147330 -120280,166830 -22730,6490 -46570,8670 -90980,8670l-226400 -20 0 -626160 200400 0c41180,0 69330,2180 94250,8680 72600,19490 120250,69330 120250,148410 0,42240 -15170,78000 -40090,101840 -10830,10810 -26000,23830 -48730,33580zm-200430 66080l0 164670 86660 0c26020,0 49840,-2170 67170,-18420 17330,-16250 24920,-36830 24920,-63910 0,-20590 -5430,-40090 -16250,-54170 -18420,-22760 -41170,-28170 -80190,-28170l-82310 0zm-1090 -108340l70410 0c21680,0 32510,10 43360,-3240 29240,-8670 47650,-34660 47650,-70420 10,-42250 -19510,-60660 -47650,-69330 -11930,-3250 -23840,-4340 -47700,-4340l-66070 0 0 147330zm501610 375910l0 -521070 -180940 0 0 -105090 502670 0 -35740 105090 -160340 0 0 521070 -125650 0zm360750 0l0 -626160 407330 0 -35750 105090 -247010 0 0 138670 100760 0c81240,0 123490,19500 152730,44410 22750,19500 61770,62840 61770,148420 0,84490 -40100,131090 -73680,154920 -39010,27070 -80180,34670 -163590,34670l-202560 -20zm124570 -105080l94250 0c35750,0 57420,-8650 72570,-28160 7610,-9750 18410,-27080 18410,-59580 10,-32500 -10800,-55250 -32480,-71490 -13010,-9770 -30340,-15160 -59580,-15160l-93170 -10 0 174400z"/>
   </g>
   <g>
    <path class="fil1" d="M5958980 331730c34950,0 131570,4610 69350,187740 -65480,191960 -210450,152540 -210450,152540l106650 -340280 34450 0zm259340 199920l0 0c81680,-201620 -70970,-256360 -170700,-256360l-329720 240c27460,18780 22920,43800 17530,58990l-192110 614370c-7640,24260 -36430,49770 -51730,53820l266870 0c-14650,-2690 -35650,-23660 -28050,-52200l69800 -222090c0,0 321120,43370 418110,-196770z"/>
    <path class="fil1" d="M6326460 908360c-10630,6470 -52220,27680 -91350,31340 -36170,3320 -96540,-10670 -96390,-83190 0,-62160 67500,-107270 103860,-123240 15120,60270 48440,127970 83880,175090zm105270 -391270l0 0c-9240,58480 -84970,117610 -103390,125640 -3240,-32900 -1880,-84850 25730,-127290 18050,-28170 42250,-40460 61780,-33680 15510,5410 17450,19830 15880,35330zm280 485620l0 0 179300 0c-57490,-18710 -142390,-72770 -176150,-111500 27420,-29970 61230,-67340 67280,-143890l-93310 0c0,0 18160,10240 18160,32140 0,20280 -8160,48060 -23840,67910 -27270,-40410 -56570,-86570 -66570,-154300 36380,-18270 87750,-37950 128730,-73560 38520,-34000 47460,-65810 48150,-86840l0 -2580c0,-21760 -8590,-42240 -24320,-57780 -26860,-26940 -69500,-37760 -114000,-29390 -36020,6710 -66550,25890 -81790,40080 -54430,50690 -61410,134600 -61410,172530 0,9020 380,16240 700,20310 -3070,1110 -8560,3390 -8560,3390 -39530,14440 -145350,42770 -183220,129740 -4750,11050 -11690,34660 -11690,62620 0,23840 5160,50460 20440,74780 26650,41580 72090,67910 144390,66530 78800,-1360 156190,-54950 170130,-64700 13630,12640 48980,45750 67580,54510z"/>
    <path class="fil1" d="M6977580 332420c106730,-25600 194680,57990 202840,63620l30530 -96910c-42420,-12580 -348620,-116310 -564830,130940 -133090,151790 -165760,463400 3050,546830 180740,89300 380160,-13800 394650,-20970l82890 -262740c8800,-31750 28940,-52400 64480,-65590l-286840 0c42000,17630 38900,49140 35360,61950l-82370 262700c-10860,2240 -241460,59490 -112320,-343760 27770,-86630 105590,-245550 232560,-276070z"/>
   </g>
   <g>
    <path class="fil0" d="M9371350 304470l0 29600 255100 0c16900,0 42450,0 59420,17130 16960,16910 16960,42410 16960,59480l0 254760c0,16900 0,42510 -16960,59420 -16970,17020 -42520,17020 -59420,17020l-123230 0c-21220,0 -48860,0 -59480,-23430 -10610,-23300 4210,-44540 17020,-61540l165690 -220680 -255100 0 -101770 135860c-16960,22750 -31780,42400 -31780,67860 0,25490 13590,43910 31780,68000l25610 33930c25280,33930 50890,67960 84810,84980 34030,16900 74360,16900 129630,16900l110470 0c63640,0 159330,0 222920,-63630 63680,-63750 63680,-157150 63680,-191200l0 -101920c0,-33990 0,-127380 -63680,-191010 -63590,-63640 -159280,-63640 -222920,-63640l-176360 0c-16900,0 -38250,0 -55140,16900 -17250,16970 -17250,38140 -17250,55210z"/>
    <polygon class="fil0" points="9044140,436230 9298900,436230 8993150,843870 8738380,843870 "/>
    <path class="fil0" d="M8032400 508230c0,-16900 0,-38180 16960,-55210 16960,-16790 38190,-16790 55270,-16790l426730 0c55210,0 95650,0 129510,16790 34050,17030 59540,51060 85150,84980l25330 34090c18030,24040 31900,42400 31900,67860 0,25490 -14770,45200 -31900,68000l-101930 135920 -254880 0 165690 -220890c12790,-16910 27630,-38140 17070,-61600 -10730,-23380 -38310,-23380 -59640,-23380l-199500 0 0 509640 -203830 0 0 -509640 -101930 0 0 -29770z"/>
   </g>
   <g>
    <g>
     <path class="fil1" d="M11455820 482690l225610 60970c2280,-7500 5210,-14670 9120,-21520 -68140,-39120 -136270,-76940 -204090,-116060 -13360,23800 -23800,49230 -30640,76610l0 0zm282010 85420l185830 0c-650,-4890 -1310,-9780 -2280,-14340l226910 -60320c5540,26080 10750,53140 10750,80530 -76610,980 -153880,2610 -230170,3590l0 9450 230170 330c-1300,26730 -3260,54450 -10100,80850 -75310,-19890 -152250,-38470 -227560,-58360 1300,-5210 2280,-10750 2600,-16300l-185830 0 0 -25430 -320 0zm-244520 -173770l201810 119650c4240,-6850 9130,-13040 14340,-18910 -55750,-54440 -112150,-110190 -167570,-165290 -19240,19560 -34890,42380 -48580,64550l0 0zm58030 -74000l164640 168220c5870,-5210 12070,-10100 18910,-14340 -40100,-67160 -80530,-135630 -119650,-203440 -23800,13690 -44990,31950 -63900,49560l0 0zm75310 -56410l115740 205720c6850,-3580 14350,-6840 22170,-9120 -21520,-75640 -43040,-152260 -63900,-227890 -26080,7170 -51510,19230 -74010,31290l0 0zm87380 -34550l59330 229190c7500,-1630 15330,-2610 23480,-2940 -1310,-78890 -2610,-158440 -3260,-237010 -27390,0 -54780,5210 -79550,10760l0 0zm92590 -10760l-1310 237020c7830,320 15650,1300 23150,3260 18910,-76290 38150,-153890 57710,-229850 -26080,-6840 -53800,-9130 -79550,-10430l0 0zm92590 13690l-61950 228870c7500,2280 15000,5540 21850,9450 37810,-68460 75960,-138560 114430,-207020 -23470,-13700 -49560,-22820 -74330,-31300l0 0zm86060 37820l-118340 205060c6520,4240 12710,9130 18580,14680 54450,-56080 108890,-113790 163670,-169860 -19570,-19560 -42380,-35210 -63910,-49880l0 0zm73030 59010l-166590 167250c5210,5860 10110,12060 14020,18910 66830,-40430 134320,-81510 201480,-121280 -13370,-23800 -31300,-44990 -48910,-64880l0 0zm55430 75960l-203760 117690c3580,7180 6520,14350 8800,22170 74980,-21510 150620,-43680 225600,-64550 -6520,-26410 -18580,-51510 -30640,-75310l0 0zm31300 275810l-226590 -62270c-2280,7830 -5540,15000 -9130,21850 67810,38470 136930,76940 205070,116060 13690,-23800 22500,-49880 30650,-75640l0 0zm-37170 87050l-203110 -119650c-4240,6520 -9130,13040 -14350,18590 55750,55420 112480,110520 168230,165940 19240,-19560 34890,-42060 49230,-64880l0 0zm-58030 74010l-165620 -168550c-5870,5210 -12060,10100 -18580,14340 39770,68140 80520,135950 119970,203760 23470,-13360 44010,-30970 64230,-49550l0 0zm-75310 56070l-116390 -206040c-6850,3590 -14350,6850 -21840,9130 21190,76290 43350,152570 63890,228540 25760,-6850 50210,-18590 74340,-31630l0 0zm-87050 34560l-60320 -229190c-7490,1630 -15320,2610 -23140,2940 980,79220 2610,158440 3260,237340 27390,320 53790,-4570 80200,-11090l0 0zm-92590 10760l330 -237020c-7830,-320 -15650,-1300 -23150,-3260 -19560,76620 -38150,153880 -57710,230170 26080,7180 53140,9790 80530,10110l0 0zm-92590 -13690l60970 -228540c-7500,-2280 -15000,-5540 -21850,-9130 -38140,69120 -75960,138560 -114430,207020 23470,13700 48900,23150 75310,30650l0 0zm-85420 -37490l117040 -204740c-6510,-4240 -12710,-9130 -18580,-14350 -54770,56730 -108890,113780 -163660,169860 19230,19230 41080,35210 65200,49230l0 0zm-73350 -58690l165290 -167250c-5220,-5860 -10110,-12060 -14020,-18580 -67490,40430 -134320,80850 -201150,120950 13360,23800 30320,45000 49880,64880l0 0zm-55430 -75960l202140 -117690c-3590,-6850 -6520,-14020 -8800,-21850 -75320,21520 -150630,42710 -224960,64230 6850,25760 17930,50860 31620,75310l0 0z"/>
     <path class="fil1" d="M12324010 286430c330,-16950 14020,-37490 39770,-37490l54450 0 0 -24780 -292770 0 0 24780c31630,0 51190,0 66840,0 25760,0 35210,18580 35210,37490 0,197240 1630,370030 0,566950 0,14670 0,49880 -34230,49880 -3260,0 -64230,0 -67490,0l0 29020 292770 0 0 -29020c-16960,0 -37500,0 -57710,0 -11080,-980 -20210,-7500 -16630,-14670l266360 -588470c3920,-6840 5540,1630 4240,25430 0,179640 -3260,347870 -3260,528150 0,26740 -12390,48580 -30320,49890 -9130,0 -35540,0 -63250,0l0 29010 282010 0 0 -29010c-24450,0 -42710,0 -57700,0 -26410,-6200 -36520,-23480 -36520,-49890l0 -567270c5870,-21190 23470,-37490 33260,-37490l60630 0 0 -24780 -282000 0 0 24780c17600,0 45310,0 71070,0 9450,320 13360,11730 7170,21190 -50210,115080 -219740,484790 -267330,581620 -3270,2940 -2940,-1630 -4250,1630l10 -566950 -330 0zm-1380370 -62920l-211260 0 0 28690c26410,0 52160,0 66840,0 19560,0 19560,12060 19560,25100 0,42390 2610,127150 2610,157470l0 344600 -2610 73680c0,44020 -59990,50210 -89010,50210l-1630 28690 220720 0 -980 -28690c-79550,0 -95850,-30320 -95850,-50210l0 -597590 2610 0 199200 676160 26410 0 187460 -655300 0 576410c0,50200 -23150,50200 -98460,50200l0 28690 290150 0 1640 -28690c-77920,0 -88030,0 -88030,-50200 0,-40750 0,-522940 0,-576410 0,-24120 15320,-27710 93240,-27710l0 -25100 -210280 0 -157470 529780 -154860 -529780 0 0z"/>
     <polygon class="fil1" points="10729120,1000090 12798040,1000090 12798040,1061380 10729120,1061380 "/>
    </g>
   </g>
  </g>
 </g>
</svg>
